<svg width="32" height="32" viewBox="0 0 32 32" fill="none" xmlns="http://www.w3.org/2000/svg">
<g clip-path="url(#clip0_1_278)" filter="url(#filter0_d_1_278)">
<path d="M16.9999 1.00013C16.9999 0.734916 17.1053 0.480562 17.2928 0.293025C17.4803 0.105489 17.7347 0.000132124 17.9999 0.000132124C20.6512 0.00304372 23.193 1.05755 25.0678 2.93228C26.9425 4.80701 27.997 7.34886 27.9999 10.0001C27.9999 10.2654 27.8945 10.5197 27.707 10.7072C27.5195 10.8948 27.2651 11.0001 26.9999 11.0001C26.7347 11.0001 26.4803 10.8948 26.2928 10.7072C26.1053 10.5197 25.9999 10.2654 25.9999 10.0001C25.9975 7.87913 25.1539 5.84568 23.6541 4.34591C22.1544 2.84613 20.1209 2.00251 17.9999 2.00013C17.7347 2.00013 17.4803 1.89478 17.2928 1.70724C17.1053 1.5197 16.9999 1.26535 16.9999 1.00013ZM17.9999 6.00013C19.0608 6.00013 20.0782 6.42156 20.8283 7.17171C21.5785 7.92185 21.9999 8.93927 21.9999 10.0001C21.9999 10.2654 22.1053 10.5197 22.2928 10.7072C22.4803 10.8948 22.7347 11.0001 22.9999 11.0001C23.2651 11.0001 23.5195 10.8948 23.707 10.7072C23.8945 10.5197 23.9999 10.2654 23.9999 10.0001C23.9983 8.40932 23.3657 6.88412 22.2408 5.75925C21.1159 4.63437 19.5907 4.00172 17.9999 4.00013C17.7347 4.00013 17.4803 4.10549 17.2928 4.29303C17.1053 4.48056 16.9999 4.73492 16.9999 5.00013C16.9999 5.26535 17.1053 5.5197 17.2928 5.70724C17.4803 5.89478 17.7347 6.00013 17.9999 6.00013ZM27.0929 16.7391C27.6724 17.3202 27.9978 18.1074 27.9978 18.9281C27.9978 19.7488 27.6724 20.536 27.0929 21.1171L26.1829 22.1661C17.9929 30.0071 -1.93707 10.0821 5.78292 1.86613L6.93292 0.866132C7.51469 0.302809 8.29485 -0.0088188 9.10462 -0.00133303C9.91439 0.00615273 10.6887 0.332151 11.2599 0.906132C11.2909 0.937132 13.1439 3.34413 13.1439 3.34413C13.6937 3.92176 13.9998 4.68906 13.9985 5.48654C13.9972 6.28401 13.6886 7.05031 13.1369 7.62613L11.9789 9.08213C12.6198 10.6392 13.562 12.0544 14.7514 13.2462C15.9409 14.4381 17.3541 15.3831 18.9099 16.0271L20.3749 14.8621C20.9508 14.3108 21.717 14.0026 22.5142 14.0015C23.3114 14.0004 24.0785 14.3065 24.6559 14.8561C24.6559 14.8561 27.0619 16.7081 27.0929 16.7391ZM25.7169 18.1931C25.7169 18.1931 23.3239 16.3521 23.2929 16.3211C23.0869 16.1169 22.8085 16.0023 22.5184 16.0023C22.2283 16.0023 21.9499 16.1169 21.7439 16.3211C21.7169 16.3491 19.6999 17.9561 19.6999 17.9561C19.564 18.0643 19.4022 18.1352 19.2306 18.1619C19.0589 18.1885 18.8832 18.17 18.7209 18.1081C16.7054 17.3577 14.8746 16.1829 13.3527 14.6632C11.8308 13.1436 10.6533 11.3146 9.89992 9.30013C9.83312 9.13559 9.81134 8.95622 9.83682 8.78047C9.86231 8.60472 9.93413 8.43893 10.0449 8.30013C10.0449 8.30013 11.6519 6.28213 11.6789 6.25613C11.8832 6.05012 11.9978 5.77175 11.9978 5.48163C11.9978 5.19152 11.8832 4.91315 11.6789 4.70713C11.6479 4.67713 9.80692 2.28213 9.80692 2.28213C9.59782 2.09464 9.32492 1.99423 9.04417 2.00148C8.76341 2.00873 8.49606 2.1231 8.29692 2.32113L7.14692 3.32113C1.50493 10.1051 18.7759 26.4181 24.7209 20.8001L25.6319 19.7501C25.8454 19.5524 25.9736 19.2794 25.9895 18.9888C26.0053 18.6983 25.9076 18.4129 25.7169 18.1931Z" fill="white"/>
</g>
<defs>
<filter id="filter0_d_1_278" x="0" y="0" width="32" height="32" filterUnits="userSpaceOnUse" color-interpolation-filters="sRGB">
<feFlood flood-opacity="0" result="BackgroundImageFix"/>
<feColorMatrix in="SourceAlpha" type="matrix" values="0 0 0 0 0 0 0 0 0 0 0 0 0 0 0 0 0 0 127 0" result="hardAlpha"/>
<feOffset dy="4"/>
<feGaussianBlur stdDeviation="2"/>
<feComposite in2="hardAlpha" operator="out"/>
<feColorMatrix type="matrix" values="0 0 0 0 0 0 0 0 0 0 0 0 0 0 0 0 0 0 0.25 0"/>
<feBlend mode="normal" in2="BackgroundImageFix" result="effect1_dropShadow_1_278"/>
<feBlend mode="normal" in="SourceGraphic" in2="effect1_dropShadow_1_278" result="shape"/>
</filter>
<clipPath id="clip0_1_278">
<rect width="24" height="24" fill="white" transform="translate(4)"/>
</clipPath>
</defs>
</svg>
