<svg width="16" height="16" viewBox="0 0 16 16" fill="none" xmlns="http://www.w3.org/2000/svg">
<g clip-path="url(#clip0_1_245)">
<path d="M0.884551 8.26684L3.25788 10.0002L2.35655 12.7915C2.21089 13.2244 2.20905 13.6928 2.35129 14.1269C2.49353 14.561 2.77225 14.9374 3.14588 15.2002C3.51312 15.4714 3.95815 15.6166 4.41465 15.6144C4.87116 15.6121 5.31471 15.4624 5.67922 15.1875L7.99989 13.4795L10.3212 15.1855C10.6878 15.4551 11.1304 15.6016 11.5855 15.6038C12.0405 15.606 12.4846 15.4639 12.8537 15.1978C13.2229 14.9318 13.4982 14.5555 13.6401 14.1232C13.7819 13.6908 13.783 13.2246 13.6432 12.7915L12.7419 10.0002L15.1152 8.26684C15.4813 7.99918 15.7535 7.62267 15.8928 7.1911C16.0321 6.75953 16.0315 6.29496 15.891 5.86377C15.7505 5.43257 15.4774 5.05679 15.1106 4.79011C14.7438 4.52343 14.3021 4.37949 13.8486 4.37884H10.9332L10.0486 1.62151C9.90943 1.18748 9.63606 0.808849 9.26786 0.540217C8.89967 0.271584 8.45566 0.126831 7.99989 0.126831C7.54411 0.126831 7.10011 0.271584 6.73191 0.540217C6.36371 0.808849 6.09034 1.18748 5.95122 1.62151L5.06655 4.37884H2.15388C1.70038 4.37949 1.25868 4.52343 0.891871 4.79011C0.525063 5.05679 0.251912 5.43257 0.111432 5.86377C-0.0290475 6.29496 -0.0296693 6.75953 0.109656 7.1911C0.24898 7.62267 0.521125 7.99918 0.887218 8.26684H0.884551Z" fill="#FFE605"/>
</g>
<defs>
<clipPath id="clip0_1_245">
<rect width="16" height="16" fill="white"/>
</clipPath>
</defs>
</svg>
